<?xml version="1.0" standalone="no"?><!DOCTYPE svg PUBLIC "-//W3C//DTD SVG 1.1//EN" "http://www.w3.org/Graphics/SVG/1.1/DTD/svg11.dtd"><svg class="icon" height="20" viewBox="0 0 1024 1024" version="1.1" xmlns="http://www.w3.org/2000/svg"><path d="M110.509906 951.799608 110.509906 405.116691l138.421606-50.232055c13.646811-4.957919 28.729322 2.096754 33.682124 15.745612s-2.095731 28.729322-15.745612 33.682124l-103.775528 37.659715 0 426.053536 200.328561-96.710622 264.887926 111.73378 228.841965-111.867834 0-394.45384-45.231157 25.724895c-12.623505 7.178493-28.674063 2.764973-35.852556-9.855462-7.178493-12.622482-2.76395-28.67304 9.855462-35.851533l123.811864-70.415746 0 523.248182L628.548436 938.176332 367.631962 827.671543 110.509906 951.799608zM522.783601 684.443467l-0.74599-0.010233c-10.954493-0.305969-20.986987-3.796466-59.128679-47.762817-24.048719-27.721365-50.373271-61.715597-74.124208-95.720062-47.985898-68.700685-105.185644-165.265998-105.185644-235.153718 0-131.880633 107.291608-239.173265 239.172241-239.173265s239.174288 107.292632 239.174288 239.173265c0 69.546959-57.755402 166.378331-106.206904 235.364519-31.862685 45.36521-60.139705 79.394235-74.160024 95.641267-10.437723 12.094456-19.893072 22.378683-27.340695 29.735232C543.966039 676.682713 535.127743 684.443467 522.783601 684.443467zM522.771321 119.205962c-102.886275 0-186.589652 83.7044-186.589652 186.589652 0 41.231053 32.264844 112.171756 88.523149 194.632839 39.391149 57.736982 78.006632 103.223966 97.688903 123.521245 19.87056-20.892843 58.953693-67.204611 97.56099-123.44859 57.655118-83.997066 89.406263-153.144936 89.406263-194.705494C709.361997 202.909339 625.657596 119.205962 522.771321 119.205962zM522.771321 411.149081c-56.69935 0-102.827947-46.128597-102.827947-102.829993 0-56.69935 46.128597-102.82897 102.827947-102.82897s102.829993 46.128597 102.829993 102.82897C625.601314 365.020484 579.470671 411.149081 522.771321 411.149081zM522.771321 240.546541c-37.369096 0-67.772546 30.40345-67.772546 67.77357s30.40345 67.774593 67.772546 67.774593c37.371142 0 67.774593-30.40345 67.774593-67.774593S560.142463 240.546541 522.771321 240.546541z" /></svg>